<svg xmlns="http://www.w3.org/2000/svg" width="38" height="38" viewBox="0 0 38 38" fill="none">
    <g clip-path="url(#clip0_420_5348)">
        <path d="M9.16747 -0.0237303C8.66279 -0.00591778 8.19966 0.26127 7.93247 0.68877L4.34622 6.08002L2.68372 4.08502C2.36607 3.59221 1.7931 3.32799 1.21419 3.40221C0.632318 3.47643 0.145443 3.88018 -0.0356501 4.43533C-0.219713 4.99346 -0.0683064 5.60502 0.356225 6.00877L3.32497 9.57127C3.63076 9.93643 4.09091 10.1383 4.56591 10.1146C5.04091 10.0908 5.48029 9.84736 5.74747 9.45252L10.4737 2.35127C10.7973 1.87924 10.824 1.26471 10.5479 0.762988C10.2748 0.26127 9.74044 -0.0415428 9.16747 -0.0237303ZM16.72 4.56002C15.8805 4.56002 15.2 5.24055 15.2 6.08002C15.2 6.91949 15.8805 7.60002 16.72 7.60002H36.48C37.3194 7.60002 38 6.91949 38 6.08002C38 5.24055 37.3194 4.56002 36.48 4.56002H16.72ZM9.16747 12.8963C8.66279 12.9141 8.19966 13.1813 7.93247 13.6088L4.34622 19L2.68372 17.005C2.34826 16.5508 1.78716 16.3192 1.22904 16.4053C0.670913 16.4914 0.207788 16.8803 0.0237248 17.4147C-0.160338 17.9491 -0.0326815 18.5428 0.356225 18.9525L3.32497 22.515C3.63372 22.8772 4.09685 23.0761 4.57185 23.0464C5.04685 23.0197 5.48326 22.7703 5.74747 22.3725L10.4737 15.2713C10.7973 14.7992 10.824 14.1847 10.5479 13.683C10.2748 13.1813 9.74044 12.8785 9.16747 12.8963ZM16.72 17.48C15.8805 17.48 15.2 18.1605 15.2 19C15.2 19.8395 15.8805 20.52 16.72 20.52H36.48C37.3194 20.52 38 19.8395 38 19C38 18.1605 37.3194 17.48 36.48 17.48H16.72ZM9.19122 27.36C9.13482 27.366 9.08138 27.3719 9.02497 27.3838C8.57669 27.4402 8.17591 27.6925 7.93247 28.0725L4.34622 33.4638L2.68372 31.4688C2.34826 31.0145 1.78716 30.783 1.22904 30.8691C0.670913 30.9552 0.207788 31.3441 0.0237248 31.8785C-0.160338 32.4128 -0.0326815 33.0066 0.356225 33.4163L3.32497 36.9788C3.63372 37.341 4.09685 37.5399 4.57185 37.5102C5.04685 37.4835 5.48326 37.2341 5.74747 36.8363L10.4737 29.7588C10.8062 29.2897 10.8448 28.6722 10.5747 28.1616C10.3015 27.6539 9.76716 27.3452 9.19122 27.36ZM16.72 31.92C15.8805 31.92 15.2 32.6005 15.2 33.44C15.2 34.2795 15.8805 34.96 16.72 34.96H36.48C37.3194 34.96 38 34.2795 38 33.44C38 32.6005 37.3194 31.92 36.48 31.92H16.72Z"
              fill="#0787EA"/>
    </g>
    <defs>
        <clipPath id="clip0_420_5348">
            <rect width="38" height="38" fill="white"/>
        </clipPath>
    </defs>
</svg>