<svg xmlns="http://www.w3.org/2000/svg" width="35" height="50" viewBox="0 0 35 50" fill="none">
    <path d="M5.12069 30.5175V8.85185C5.12069 7.8291 5.94979 7 6.97254 7H19.5619C20.5847 7 21.4138 7.8291 21.4138 8.85185V29.9256C21.4138 30.9452 22.2403 31.7717 23.2599 31.7717C24.79 31.7717 25.6559 33.5261 24.7254 34.7406L14.5364 48.0397C13.7855 49.0198 12.3039 49.0045 11.5734 48.0091L2.01106 34.9794C1.17653 33.8423 1.98855 32.2391 3.39904 32.2391C4.34988 32.2391 5.12069 31.4683 5.12069 30.5175Z"
          fill="#0787EA" stroke="#0787EA" stroke-width="1.85185"/>
    <ellipse cx="23.6486" cy="11.1111" rx="7.80406" ry="7.63889" fill="#FFD525"/>
    <ellipse cx="23.6487" cy="11.1111" rx="11.3514" ry="11.1111" fill="white"/>
    <path d="M32.6822 11.1111C32.6822 15.951 28.6655 19.9244 23.6486 19.9244C18.6317 19.9244 14.6151 15.951 14.6151 11.1111C14.6151 6.27113 18.6317 2.29775 23.6486 2.29775C28.6655 2.29775 32.6822 6.27113 32.6822 11.1111Z"
          stroke="#0787EA" stroke-width="2.74369"/>
    <path d="M23.2794 14.4731L23.3057 9.10012L22.1757 9.42548L21.9779 8.2779L24.6512 7.5788V14.4731H23.2794Z"
          fill="#0787EA"/>
    <path d="M23.2794 14.4731L22.8874 14.4712L22.8855 14.865H23.2794V14.4731ZM23.3057 9.10012L23.6977 9.10204L23.7003 8.57864L23.1973 8.72346L23.3057 9.10012ZM22.1757 9.42548L21.7895 9.49208L21.8638 9.92318L22.2842 9.80214L22.1757 9.42548ZM21.9779 8.2779L21.8787 7.8987L21.5305 7.98977L21.5916 8.3445L21.9779 8.2779ZM24.6512 7.5788H25.0431V7.07116L24.552 7.1996L24.6512 7.5788ZM24.6512 14.4731V14.865H25.0431V14.4731H24.6512ZM23.6713 14.475L23.6977 9.10204L22.9138 9.09819L22.8874 14.4712L23.6713 14.475ZM23.1973 8.72346L22.0673 9.04883L22.2842 9.80214L23.4142 9.47677L23.1973 8.72346ZM22.562 9.35889L22.3641 8.21131L21.5916 8.3445L21.7895 9.49208L22.562 9.35889ZM22.077 8.65711L24.7503 7.95801L24.552 7.1996L21.8787 7.8987L22.077 8.65711ZM24.2592 7.5788V14.4731H25.0431V7.5788H24.2592ZM24.6512 14.0811H23.2794V14.865H24.6512V14.0811Z"
          fill="#0787EA"/>
</svg>