<svg xmlns="http://www.w3.org/2000/svg" width="46" height="46" viewBox="0 0 46 46" fill="none">
    <path d="M21.7064 1.84C21.2644 1.84 20.8835 2.15625 20.8008 2.59468L20.312 5.26843C19.852 5.41218 19.4064 5.59187 18.9752 5.81109L16.7794 4.22625C16.4164 3.9639 15.9169 3.99984 15.597 4.31968L13.6313 6.25671C13.315 6.56937 13.2683 7.06531 13.5235 7.43187L15.0652 9.66359C14.8424 10.0948 14.6555 10.5405 14.5045 10.9969L11.8308 11.4281C11.3888 11.5 11.0617 11.8809 11.0581 12.3302L11.0402 15.0902C11.0366 15.5358 11.3564 15.9203 11.7949 15.9994L14.4758 16.4881C14.6195 16.9445 14.8028 17.3866 15.0185 17.8142L13.4264 20.0208C13.1641 20.3837 13.2 20.8869 13.5163 21.2067L15.4569 23.1689C15.7695 23.4852 16.2655 23.5319 16.632 23.2767L18.8889 21.7206C19.3202 21.9398 19.7622 22.1231 20.215 22.2705L20.6714 24.9766C20.7469 25.4186 21.1278 25.742 21.5735 25.7456L24.3335 25.76H24.337C24.7863 25.76 25.1708 25.4366 25.2463 24.9945L25.7027 22.292C26.1519 22.1483 26.5903 21.9686 27.0108 21.753L29.2569 23.3486C29.6199 23.6073 30.1158 23.5678 30.4356 23.2552L32.3978 21.3145C32.7177 20.9983 32.7608 20.4952 32.502 20.1286L30.91 17.8933C31.1292 17.4728 31.3125 17.038 31.4599 16.5887L34.1767 16.1287C34.6188 16.0533 34.9422 15.6723 34.9458 15.2267L34.9602 12.4667C34.9638 12.0175 34.6403 11.633 34.1947 11.5575L31.4994 11.1011C31.3592 10.6483 31.176 10.2062 30.9639 9.77859L32.5488 7.54328C32.8075 7.18031 32.768 6.68078 32.4553 6.36453L30.5183 4.40234C30.1985 4.0789 29.6953 4.03937 29.3288 4.29812L27.1186 5.87218C26.6945 5.64937 26.2561 5.4625 25.8033 5.31515L25.372 2.63062C25.3002 2.18859 24.9192 1.86156 24.47 1.85796L21.71 1.84H21.7064ZM22.9642 10.1487C23.9166 10.1487 24.8689 10.5117 25.5913 11.2448C27.0252 12.6967 27.0144 15.0362 25.5625 16.4702C24.8438 17.1817 23.9058 17.5375 22.9678 17.5375C22.0119 17.5375 21.0595 17.1709 20.3372 16.4414C18.9033 14.9895 18.9177 12.65 20.3695 11.2125C21.0883 10.5009 22.0263 10.1487 22.9642 10.1487ZM13.2683 25.76C11.13 25.76 10.1202 26.1697 9.05283 26.6045L8.56767 26.7986C6.34674 27.6611 2.52299 29.4616 2.36127 29.5406C1.90127 29.7562 1.70361 30.3025 1.91924 30.7625C2.13846 31.2225 6.23174 40.3039 6.44377 40.6345C6.71689 41.0622 7.28471 41.1844 7.71236 40.9112L9.98361 39.4594C10.9324 38.8628 11.3025 38.7083 12.6645 39.4019L14.4974 40.3362C16.571 41.3928 19.4136 42.8411 20.312 43.2687C21.6633 43.9156 22.7881 44.16 23.7513 44.16C25.4188 44.16 26.5939 43.4305 27.6145 42.8016C27.8338 42.665 28.053 42.5284 28.2758 42.4027C29.8355 41.515 40.7389 34.3958 41.8817 33.6016C43.2222 32.6708 43.9805 31.6861 44.1314 30.6798C44.2356 29.9934 44.1278 29.3178 43.3264 28.7787C42.2771 28.0744 40.5808 29.1345 40.5808 29.1345L32.0277 34.748C31.5677 36.2969 30.1266 37.72 27.1402 37.72H22.3102C20.3947 37.72 17.8252 37.1594 16.6788 36.8862C16.6536 36.8791 16.3266 36.8 16.3266 36.8C15.9313 36.6958 15.6402 36.3364 15.6402 35.9087C15.6402 35.402 16.0535 34.9887 16.5602 34.9887C16.65 34.9887 16.8153 35.0247 16.8153 35.0247C17.6563 35.2331 20.4055 35.88 22.3102 35.88H27.1402C29.2533 35.88 30.3602 35.0175 30.3602 33.58C30.3602 32.2611 29.3108 31.28 27.1402 31.28C25.3469 31.28 23.2302 30.9494 21.1745 30.3923C19.8161 30.0258 18.6841 27.1687 16.2152 26.1697C16.0103 26.087 15.076 25.76 13.2683 25.76ZM31.7977 25.778C30.6297 25.778 29.4545 26.2272 28.7969 26.6117C28.6531 26.7016 26.2777 28.1786 24.5311 29.2675C25.3433 29.3717 26.1986 29.44 27.1402 29.44C27.7008 29.44 28.1895 29.5083 28.6531 29.6089L33.537 26.5794C33.6449 26.5075 33.7922 26.4284 33.9575 26.3458C33.4185 26.0295 32.7069 25.778 31.7977 25.778ZM37.2674 27.0286C37.1308 27.0286 36.987 27.0358 36.8325 27.0502C36.2467 27.1041 35.5747 27.485 35.5747 27.485L30.6872 30.5145C31.388 31.0644 31.8336 31.7723 32.042 32.5342L37.6231 28.8758L39.2152 27.83C39.1325 27.7366 39.0391 27.6467 38.9349 27.5605C38.9205 27.5461 38.9061 27.5353 38.8881 27.5245C38.7875 27.4419 38.6653 27.3664 38.536 27.2981C38.5108 27.2873 38.4856 27.2766 38.4569 27.2658C38.3203 27.2011 38.1658 27.1472 37.9933 27.1077C37.9646 27.1005 37.9322 27.0969 37.9035 27.0897C37.7166 27.0537 37.5117 27.0286 37.2781 27.0286C37.2745 27.0286 37.271 27.0286 37.2674 27.0286Z"
          fill="#0787EA"/>
</svg>