<svg xmlns="http://www.w3.org/2000/svg" width="38" height="38" viewBox="0 0 38 38" fill="none">
    <g clip-path="url(#clip0_420_5331)">
        <path d="M29.3075 -0.0713004C26.4189 -0.0148942 22.9128 1.78714 21.28 3.41995C19.2048 5.49511 19.0238 8.34511 20.7575 11.3049L18.05 14.0124L19.0238 14.9624C19.5344 14.5349 20.1934 14.2974 20.9 14.2974C21.6867 14.2974 22.4408 14.5824 22.9662 15.1049L23.4888 15.6512C24.1805 16.3429 24.4773 17.3196 24.2962 18.2637L24.8188 18.8099C24.9137 18.8099 25.0087 18.8278 25.1038 18.8337L26.7188 17.2187C28.0784 17.949 29.3877 18.3112 30.59 18.3112C32.0714 18.3112 33.4044 17.7531 34.5088 16.6487C36.5513 14.6062 38.7748 9.84432 37.7388 6.74495C37.6556 6.49557 37.4508 6.30557 37.1925 6.2462C36.9342 6.18386 36.667 6.27292 36.48 6.45995L32.4425 10.4737C32.1961 10.7201 31.733 10.7053 31.4688 10.4737L27.4312 6.45995C27.1848 6.21354 27.1997 5.75339 27.4312 5.4862L31.4688 1.4487C31.6528 1.26464 31.7419 0.991512 31.6825 0.7362C31.6231 0.480887 31.4302 0.276043 31.1838 0.18995C30.6138 -0.0059879 29.9755 -0.0831754 29.3075 -0.0713004ZM1.9 -5.04106e-05L0 1.89995L3.1825 7.45745L5.24875 7.1487L17.1 18.9999L16.1975 19.9024C15.672 20.4279 15.672 21.372 16.1975 21.8974L16.72 22.4199C17.0941 22.791 17.7234 22.9157 18.2162 22.7287L18.6912 22.5624L20.3538 24.2249L20.3062 24.5812C20.2202 25.3887 20.5378 26.2378 21.1375 26.8374L31.1125 36.8362C31.8844 37.6081 32.8967 38.0237 33.9625 38.0237C35.0283 38.0237 36.0555 37.5932 36.8363 36.8124C38.3592 35.2182 38.3711 32.671 36.8363 31.1362L26.8375 21.1374C26.2705 20.5704 25.457 20.2706 24.5812 20.3299L24.225 20.3537L22.5625 18.6912L22.7288 18.2162C22.9306 17.6967 22.8119 17.1118 22.42 16.7199L21.8975 16.1974C21.4166 15.7165 20.3834 15.7165 19.9025 16.1974L19 17.0999L7.14875 5.2487L7.4575 3.18245L1.9 -5.04106e-05ZM14.0125 18.0499L9.405 22.6574C8.87953 22.5535 8.36297 22.4912 7.8375 22.4912C3.5625 22.4912 0.07125 25.9824 0.07125 30.2574C0.07125 34.5324 3.5625 37.9999 7.8375 37.9999C12.1125 37.9999 15.58 34.5324 15.58 30.2574C15.58 29.6132 15.5266 29.0551 15.39 28.5474L18.7862 25.1512C18.7773 25.0354 18.7595 24.9107 18.7625 24.7949L18.2638 24.2962C17.3345 24.4714 16.3192 24.1567 15.6512 23.4887L15.105 22.9662C14.0422 21.9034 14.0066 20.1548 14.9625 19.0237L14.0125 18.0499ZM24.1062 23.0137L33.2262 32.1337L32.1338 33.2262L23.0138 24.1062L24.1062 23.0137ZM8.74 26.5999L11.4 29.2599L10.4975 32.8224L6.84 33.8199L4.18 31.1599L5.1775 27.5974L8.74 26.5999Z"
              fill="#0787EA"/>
    </g>
    <defs>
        <clipPath id="clip0_420_5331">
            <rect width="38" height="38" fill="white"/>
        </clipPath>
    </defs>
</svg>