<svg xmlns="http://www.w3.org/2000/svg" width="54" height="54" viewBox="0 0 54 54" fill="none">
    <path d="M50.1422 27.4566C50.1422 27.4489 50.1418 27.4411 50.1417 27.4296C50.1289 26.8495 49.6632 26.3874 49.0761 26.3874H48.7963L44.4754 18.0335C44.2931 17.6806 43.9296 17.4611 43.5282 17.461L36.1513 17.4595L36.4327 15.2287C36.513 14.3372 36.2374 13.4954 35.6565 12.8583C35.0766 12.2225 34.2671 11.8723 33.3768 11.8723H10.4814C9.90576 11.8723 9.41674 12.3177 9.36186 12.8919L9.13236 14.7299H22.177C23.024 14.7299 23.6927 15.4165 23.6706 16.2636C23.6483 17.1106 22.9437 17.7972 22.0967 17.7972H17.7456C17.7464 17.7994 17.7471 17.8011 17.7479 17.8049H4.97055C4.37155 17.8049 3.87322 18.2904 3.85756 18.8894C3.84189 19.4885 4.3147 19.974 4.9137 19.974H21.8295C22.6148 20.0951 23.2014 20.774 23.1798 21.5961C23.1562 22.499 22.4087 23.2311 21.5073 23.2387H9.84518C9.24015 23.2387 8.73689 23.7291 8.72101 24.3341C8.70512 24.9392 9.18275 25.4296 9.78778 25.4296H21.3126C22.1093 25.5407 22.7077 26.2251 22.686 27.0553C22.6622 27.9628 21.9072 28.6985 20.9997 28.6985H7.77814L6.66722 28.6997C6.06219 28.6997 5.55893 29.1902 5.54305 29.7952C5.52716 30.4002 6.00468 30.8907 6.60982 30.8907H7.56857L7.19359 34.8144C7.11319 35.7058 7.38881 36.5476 7.96984 37.1847C8.54957 37.8206 9.35923 38.1707 10.2495 38.1707H11.0766C11.4708 40.4245 13.4207 42.1275 15.8059 42.1275C18.191 42.1275 20.2301 40.4245 20.7421 38.1708H31.0635C31.898 38.1708 32.6881 37.8519 33.3077 37.3293C33.8742 37.8731 34.6253 38.1708 35.4454 38.1708H35.6152C36.0092 40.4245 37.9591 42.1275 40.3444 42.1275C42.7296 42.1275 44.7687 40.4245 45.2806 38.1708H45.9619C47.7366 38.1708 49.3106 36.728 49.4706 34.9545L50.1381 27.5594C50.139 27.5479 50.1386 27.5402 50.1392 27.5286C50.1403 27.5132 50.1424 27.4977 50.1429 27.4831C50.1431 27.4754 50.1422 27.4643 50.1422 27.4566ZM15.8633 39.9363C14.3532 39.9363 13.1567 38.7078 13.1962 37.1977C13.2358 35.6875 14.4966 34.4589 16.0067 34.4589C17.5168 34.4589 18.7131 35.6875 18.6736 37.1977C18.634 38.7078 17.3734 39.9363 15.8633 39.9363ZM40.4018 39.9363C38.8917 39.9363 37.6954 38.7078 37.7348 37.1977C37.7743 35.6875 39.0351 34.4589 40.5452 34.4589C42.0553 34.4589 43.2518 35.6875 43.2122 37.1977C43.1726 38.7078 41.9119 39.9363 40.4018 39.9363ZM47.288 34.8142C47.231 35.446 46.6501 35.9797 46.0194 35.9797H45.2825C44.7946 33.8486 42.9005 32.268 40.6025 32.268C38.3046 32.268 36.3278 33.8486 35.7283 35.9797H35.5028C35.2243 35.9797 34.9758 35.8751 34.8029 35.6854C34.6288 35.4944 34.5469 35.2348 34.5722 34.954L35.9534 19.6513L39.1258 19.652L38.623 25.2226C38.5425 26.114 38.818 26.9558 39.3989 27.5929C39.9786 28.2289 40.7885 28.5793 41.6789 28.5793H47.8506L47.288 34.8142Z"
          fill="#0787EA"/>
</svg>