<svg xmlns="http://www.w3.org/2000/svg" width="42" height="50" viewBox="0 0 42 50" fill="none">
    <path d="M21 0.25L0.75 9.25V22.75C0.75 35.2375 9.39 46.915 21 49.75C32.61 46.915 41.25 35.2375 41.25 22.75V9.25L21 0.25ZM21 13.75C24.15 13.75 27.3 16.225 27.3 19.375V22.75C28.65 22.75 30 24.1 30 25.675V33.55C30 34.9 28.65 36.25 27.075 36.25H14.7C13.35 36.25 12 34.9 12 33.325V25.45C12 24.1 13.35 22.75 14.7 22.75V19.375C14.7 16.225 17.85 13.75 21 13.75ZM21 16.45C19.2 16.45 17.625 17.575 17.625 19.375V22.75H24.375V19.375C24.375 17.575 22.8 16.45 21 16.45Z"
          fill="#0787EA"/>
</svg>