<svg width="26" height="26" viewBox="0 0 26 26" fill="none" xmlns="http://www.w3.org/2000/svg">
<g clip-path="url(#clip0_1_297)">
<path d="M26 9.40388C25.4995 8.19488 25.2362 7.56112 24.7358 6.3505L21.0373 4.96275L19.6495 1.26425C18.4405 0.76375 17.8051 0.5005 16.5961 0L13 1.63475L9.40388 0C8.19488 0.5005 7.5595 0.76375 6.3505 1.26425L4.96275 4.96275L1.26425 6.3505C0.76375 7.5595 0.5005 8.19325 0 9.40388L1.63475 13L0 16.5961C0.5005 17.8051 0.76375 18.4389 1.26425 19.6495L4.96275 21.0373L6.3505 24.7358C7.5595 25.2362 8.19488 25.4995 9.40388 26L13 24.3653L16.5961 26C17.8051 25.4995 18.4389 25.2362 19.6495 24.7358L21.0373 21.0373L24.7358 19.6495C25.2362 18.4405 25.4995 17.8068 26 16.5961L24.3653 13L26 9.40388Z" fill="#FEC531" style="fill:#FEC531;fill:color(display-p3 0.9961 0.7710 0.1922);fill-opacity:1;"/>
<path d="M8.9375 11.375C10.2837 11.375 11.375 10.2837 11.375 8.9375C11.375 7.59131 10.2837 6.5 8.9375 6.5C7.59131 6.5 6.5 7.59131 6.5 8.9375C6.5 10.2837 7.59131 11.375 8.9375 11.375Z" fill="white" style="fill:white;fill-opacity:1;"/>
<path d="M17.0625 19.5C18.4087 19.5 19.5 18.4087 19.5 17.0625C19.5 15.7163 18.4087 14.625 17.0625 14.625C15.7163 14.625 14.625 15.7163 14.625 17.0625C14.625 18.4087 15.7163 19.5 17.0625 19.5Z" fill="white" style="fill:white;fill-opacity:1;"/>
<path d="M17.3146 6.49978L6.49991 17.3148L8.68429 19.4991L19.4989 8.68409L17.3146 6.49978Z" fill="white" style="fill:white;fill-opacity:1;"/>
</g>
<defs>
<clipPath id="clip0_1_297">
<rect width="26" height="26" fill="white" style="fill:white;fill-opacity:1;"/>
</clipPath>
</defs>
</svg>
