<svg width="26" height="26" viewBox="0 0 26 26" fill="none" xmlns="http://www.w3.org/2000/svg">
<path d="M12.6509 2.3635C12.1936 2.40534 11.7865 2.73862 11.6776 3.22043L11.0767 5.86952L8.13983 9.13221C7.78125 9.5298 7.58335 10.0464 7.58335 10.5816V20.5834C7.58335 21.7805 8.55294 22.7501 9.75002 22.7501H18.4505C19.2533 22.7501 19.9801 22.2774 20.3062 21.544L23.5583 14.2251C23.7392 13.82 23.8334 13.3807 23.8334 12.9366V11.9167C23.8334 10.7251 22.8584 9.75005 21.6667 9.75005H14.0834C14.0834 9.75005 15.1667 7.18177 15.1667 5.26861C15.1667 3.52119 14.0426 2.75641 13.1164 2.42274C12.9617 2.36668 12.8033 2.34955 12.6509 2.3635ZM3.79169 9.75005C2.89469 9.75005 2.16669 10.4781 2.16669 11.3751V21.1251C2.16669 22.0221 2.89469 22.7501 3.79169 22.7501C4.68869 22.7501 5.41669 22.0221 5.41669 21.1251V11.3751C5.41669 10.4781 4.68869 9.75005 3.79169 9.75005Z" fill="#0787EA" style="fill:#0787EA;fill:color(display-p3 0.0275 0.5294 0.9176);fill-opacity:1;"/>
</svg>
