<svg width="27" height="28" viewBox="0 0 27 28" fill="none" xmlns="http://www.w3.org/2000/svg">
<path d="M4.8855 0.661457L0.338623 0.684895L0.351644 3.35156L3.11206 3.33854L7.50529 13.8776L5.90894 16.4323C5.3756 17.2856 5.34802 18.3635 5.83602 19.2422C6.32402 20.1209 7.24996 20.6667 8.25529 20.6667H24.3334V18H8.25529L8.16935 17.8437L9.73706 15.3333H19.6954C20.6647 15.3333 21.5568 14.8063 22.0261 13.9609L26.8308 5.3151C27.0615 4.90177 27.0552 4.39758 26.8152 3.98958C26.5752 3.58292 26.1361 3.33333 25.6641 3.33333H6.00008L4.8855 0.661457ZM7.10946 6H23.3985L19.6954 12.6667H9.8881L7.10946 6ZM8.33341 22C7.62617 22 6.94789 22.281 6.4478 22.781C5.9477 23.2811 5.66675 23.9594 5.66675 24.6667C5.66675 25.3739 5.9477 26.0522 6.4478 26.5523C6.94789 27.0524 7.62617 27.3333 8.33341 27.3333C9.04066 27.3333 9.71894 27.0524 10.219 26.5523C10.7191 26.0522 11.0001 25.3739 11.0001 24.6667C11.0001 23.9594 10.7191 23.2811 10.219 22.781C9.71894 22.281 9.04066 22 8.33341 22ZM21.6667 22C20.9595 22 20.2812 22.281 19.7811 22.781C19.281 23.2811 19.0001 23.9594 19.0001 24.6667C19.0001 25.3739 19.281 26.0522 19.7811 26.5523C20.2812 27.0524 20.9595 27.3333 21.6667 27.3333C22.374 27.3333 23.0523 27.0524 23.5524 26.5523C24.0525 26.0522 24.3334 25.3739 24.3334 24.6667C24.3334 23.9594 24.0525 23.2811 23.5524 22.781C23.0523 22.281 22.374 22 21.6667 22Z" fill="#0787EA" style="fill:#0787EA;fill:color(display-p3 0.0275 0.5294 0.9176);fill-opacity:1;"/>
</svg>
