<svg xmlns="http://www.w3.org/2000/svg" width="44" height="44" viewBox="0 0 44 44" fill="none">
    <path fill-rule="evenodd" clip-rule="evenodd"
          d="M42.24 4.83998L42.2366 17.9334L42.24 18.2153L42.2401 18.2289C42.2435 19.4141 42.247 20.6386 41.3909 21.4912L21.3916 41.494C20.9138 41.9753 20.2709 42.24 19.5938 42.24C18.9131 42.24 18.2738 41.9753 17.7959 41.494L2.50595 26.204C2.0247 25.7228 1.76001 25.0834 1.76001 24.4062C1.76001 23.7256 2.0247 23.0862 2.50595 22.605L22.5053 2.60904C23.2891 1.82529 24.3753 1.75998 25.5166 1.75998L26.07 1.76342L39.16 1.75998C40.8581 1.75998 42.24 3.14185 42.24 4.83998ZM34.32 12.32C32.8625 12.32 31.68 11.1375 31.68 9.67998C31.68 8.22248 32.8625 7.03998 34.32 7.03998C35.7775 7.03998 36.96 8.22248 36.96 9.67998C36.96 11.1375 35.7775 12.32 34.32 12.32ZM16.1751 23.3066L17.1862 24.3177L28.4743 20.5648L27.4923 19.5828L16.1751 23.3066ZM21.2649 24.6532C21.9034 24.0147 22.5159 23.6809 23.1025 23.6517C23.6923 23.6258 24.2303 23.8559 24.7165 24.342C25.2059 24.8314 25.436 25.3694 25.4068 25.956C25.3809 26.5458 25.0487 27.16 24.4102 27.7985C23.7685 28.4402 23.1527 28.774 22.5629 28.7999C21.9763 28.8291 21.4432 28.6038 20.9635 28.1242C20.4676 27.6283 20.2327 27.0855 20.2586 26.4956C20.2878 25.909 20.6232 25.2949 21.2649 24.6532ZM21.5663 26.8019C21.6149 26.5394 21.871 26.1764 22.3344 25.7129C22.7979 25.2495 23.1625 24.9918 23.4282 24.94C23.6227 24.9011 23.7928 24.9546 23.9387 25.1004C24.0845 25.2462 24.1396 25.418 24.1039 25.6157C24.0488 25.8782 23.7896 26.2412 23.3261 26.7046C22.8627 27.1681 22.4981 27.4257 22.2323 27.4776C22.0379 27.5165 21.8677 27.463 21.7219 27.3172C21.5793 27.1746 21.5274 27.0028 21.5663 26.8019ZM22.0622 15.0763C21.4756 15.1054 20.863 15.4393 20.2246 16.0777C19.5829 16.7194 19.2474 17.3336 19.2183 17.9202C19.1956 18.5068 19.4322 19.048 19.928 19.5439C20.4077 20.0235 20.9408 20.2488 21.5274 20.2196C22.1173 20.1937 22.7314 19.8615 23.3699 19.223C24.0116 18.5813 24.3438 17.9672 24.3665 17.3806C24.3956 16.794 24.1623 16.2527 23.6664 15.7569C23.1868 15.2772 22.652 15.0503 22.0622 15.0763ZM21.2989 17.1326C20.8355 17.5961 20.5778 17.9607 20.526 18.2264C20.4903 18.4241 20.5438 18.5943 20.6864 18.7369C20.8323 18.8827 21.004 18.9378 21.2017 18.9022C21.4642 18.8471 21.8272 18.5878 22.2907 18.1243C22.7541 17.6609 23.0118 17.2995 23.0636 17.0403C23.1025 16.8393 23.049 16.6659 22.9032 16.5201C22.7606 16.3775 22.5904 16.324 22.3927 16.3597C22.127 16.4115 21.7624 16.6692 21.2989 17.1326Z"
          fill="#0787EA"/>
</svg>