<svg xmlns="http://www.w3.org/2000/svg" width="41" height="50" viewBox="0 0 41 50" fill="none">
    <path d="M20.25 0L0 9V22.5C0 34.9875 8.64 46.665 20.25 49.5C31.86 46.665 40.5 34.9875 40.5 22.5V9L20.25 0Z"
          fill="#0787EA"/>
    <ellipse cx="20.5" cy="25" rx="15.5" ry="16" fill="white"/>
    <path d="M38.8 25.4C38.8 15.2536 30.5456 7 20.4 7C10.2544 7 2 15.2536 2 25.4C2 35.5464 10.2544 43.8 20.4 43.8C30.5456 43.8 38.8 35.5464 38.8 25.4ZM28.8432 27.7C28.8432 27.7 30 28.1336 30 29.3624C30 30.6632 28.4824 31.2416 28.4824 31.2416C28.4824 31.2416 28.916 31.82 28.916 32.6152C28.916 33.3384 28.988 35.0008 22.1216 35.0008C13.6568 35.0008 13.8272 33.6184 10.76 33.4232C10.336 33.396 10 33.0504 10 32.6256V25.3064C10 24.9648 10.1864 24.628 10.5072 24.5096C11.6144 24.0976 12.2464 22.36 13.448 20.9056C15.0384 19.0264 18.3664 18.2312 18.8 13.6776C19.0168 11.8704 20.824 12.6656 21.4024 13.6776C22.3424 15.268 21.5696 16.9192 20.7744 18.5816C20.1232 20.0264 20.1832 21.4 22.0752 21.4C24.4752 21.4 24.9208 21.4 26.8 21.4C28.1008 21.4 28.8432 21.9176 28.8432 22.64C28.8432 23.2184 28.6984 24.1576 28.6984 24.1576C28.6984 24.1576 30 24.592 30 25.8928C30 27.1216 28.8432 27.7 28.8432 27.7Z"
          fill="#0787EA"/>
</svg>