<svg xmlns="http://www.w3.org/2000/svg" width="42" height="42" viewBox="0 0 42 42" fill="none">
    <path d="M29.1638 2.54633C28.5403 2.54633 27.8053 2.67429 26.8013 2.94008C24.2747 3.60617 9.45986 7.70445 9.24002 7.77008C7.04158 8.59695 5.65033 9.4107 4.77752 10.3688C5.80127 9.67648 7.02189 9.24008 8.40002 9.24008H31.92V6.43133C31.92 5.07289 31.9102 2.54633 29.1638 2.54633ZM8.40002 10.9201C5.27627 10.9201 3.36002 13.8568 3.36002 15.9601V33.9151C3.36002 36.5171 5.48298 38.6401 8.08502 38.6401H33.915C36.517 38.6401 38.64 36.5171 38.64 33.9151V15.8288C38.64 13.2596 36.2381 10.9201 33.6 10.9201H8.40002ZM32.34 22.6801C33.4983 22.6801 34.44 23.6185 34.44 24.7801C34.44 25.9416 33.4983 26.8801 32.34 26.8801C31.1785 26.8801 30.24 25.9416 30.24 24.7801C30.24 23.6185 31.1785 22.6801 32.34 22.6801Z"
          fill="#0787EA"/>
</svg>