<svg xmlns="http://www.w3.org/2000/svg" width="44" height="46" viewBox="0 0 44 46" fill="none">
    <path d="M10.991 28.8038C8.936 28.8038 7.96548 29.1867 6.93969 29.5931L6.47343 29.7745C4.33897 30.5806 0.66411 32.2632 0.508687 32.3371C0.066599 32.5386 -0.12336 33.0492 0.0838687 33.4791C0.294551 33.909 4.22845 42.3963 4.43222 42.7052C4.69471 43.1049 5.24042 43.2191 5.65142 42.9639L7.83423 41.607C8.74604 41.0494 9.10178 40.905 10.4108 41.5532L12.1722 42.4265C14.1651 43.4139 16.897 44.7675 17.7605 45.1671C19.0591 45.7717 20.1402 46.0001 21.0658 46.0001C22.6684 46.0001 23.7978 45.3183 24.7787 44.7305C24.9893 44.6029 25.2 44.4753 25.4142 44.3577C26.9131 43.5281 37.392 36.8746 38.4903 36.1324C39.7786 35.2625 40.5073 34.3422 40.6524 33.4018C40.7525 32.7603 40.6489 32.1289 39.8787 31.6251C38.8702 30.9668 37.24 31.9576 37.24 31.9576L29.0199 37.2038C28.5778 38.6514 27.1929 39.9814 24.3227 39.9814H19.6808C17.8399 39.9814 15.3705 39.4574 14.2687 39.2022C14.2445 39.1955 13.9302 39.1216 13.9302 39.1216C13.5503 39.0242 13.2705 38.6883 13.2705 38.2886C13.2705 37.8151 13.6677 37.4288 14.1547 37.4288C14.2411 37.4288 14.3999 37.4624 14.3999 37.4624C15.2081 37.6572 17.8503 38.2618 19.6808 38.2618H24.3227C26.3536 38.2618 27.4174 37.4557 27.4174 36.1122C27.4174 34.8796 26.4088 33.9627 24.3227 33.9627C22.5993 33.9627 20.565 33.6537 18.5894 33.1331C17.2839 32.7905 16.1959 30.1204 13.8231 29.1867C13.6263 29.1095 12.7283 28.8038 10.991 28.8038ZM28.7989 28.8206C27.6764 28.8206 26.547 29.2405 25.915 29.5998C25.7768 29.6838 23.4938 31.0642 21.8153 32.0819C22.5958 32.1793 23.4178 32.2431 24.3227 32.2431C24.8615 32.2431 25.3313 32.3069 25.7768 32.4009L30.4705 29.5696C30.5742 29.5024 30.7158 29.4285 30.8746 29.3513C30.3566 29.0557 29.6727 28.8206 28.7989 28.8206ZM34.0556 29.9894C33.9244 29.9894 33.7862 29.9961 33.6377 30.0096C33.0747 30.06 32.4289 30.416 32.4289 30.416L27.7317 33.2473C28.4052 33.7612 28.8334 34.4228 29.0338 35.1349L34.3975 31.7158L35.9276 30.7384C35.8481 30.6511 35.7583 30.5671 35.6582 30.4865C35.6444 30.4731 35.6305 30.463 35.6133 30.4529C35.5166 30.3757 35.3991 30.3051 35.2748 30.2413C35.2506 30.2313 35.2264 30.2212 35.1988 30.2111C35.0676 30.1506 34.9191 30.1003 34.7533 30.0633C34.7256 30.0566 34.6946 30.0532 34.6669 30.0465C34.4873 30.0129 34.2905 29.9894 34.066 29.9894C34.0625 29.9894 34.0591 29.9894 34.0556 29.9894Z"
          fill="#0787EA"/>
    <path d="M33.009 17.1962C35.064 17.1962 36.0345 16.8133 37.0603 16.4069L37.5266 16.2255C39.661 15.4194 43.3359 13.7368 43.4913 13.6629C43.9334 13.4614 44.1234 12.9508 43.9161 12.5209C43.7054 12.091 39.7716 3.60375 39.5678 3.29475C39.3053 2.89507 38.7596 2.78088 38.3486 3.03613L36.1658 4.39303C35.254 4.95056 34.8982 5.09498 33.5892 4.44676L31.8278 3.57352C29.8349 2.58608 27.103 1.23254 26.2395 0.832867C24.9409 0.228312 23.8598 -7.43866e-05 22.9342 -7.43866e-05C21.3316 -7.43866e-05 20.2022 0.681728 19.2213 1.26949C19.0107 1.39712 18.8 1.52474 18.5858 1.6423C17.0869 2.47188 6.60801 9.12535 5.5097 9.86761C4.22142 10.7375 3.49267 11.6578 3.34761 12.5982C3.24745 13.2397 3.35107 13.8711 4.12127 14.3749C5.12978 15.0332 6.75998 14.0424 6.75998 14.0424L14.9801 8.79621C15.4222 7.34863 16.8071 6.01861 19.6773 6.01861H24.3192C26.1601 6.01861 28.6295 6.54256 29.7313 6.79781C29.7555 6.80453 30.0698 6.87842 30.0698 6.87842C30.4497 6.97582 30.7295 7.31169 30.7295 7.71137C30.7295 8.18493 30.3323 8.57118 29.8453 8.57118C29.7589 8.57118 29.6001 8.53759 29.6001 8.53759C28.7919 8.34279 26.1497 7.73823 24.3192 7.73823H19.6773C17.6464 7.73823 16.5826 8.54431 16.5826 9.88776C16.5826 11.1204 17.5912 12.0373 19.6773 12.0373C21.4007 12.0373 23.435 12.3463 25.4106 12.8669C26.7161 13.2095 27.8041 15.8796 30.1769 16.8133C30.3737 16.8905 31.2717 17.1962 33.009 17.1962ZM15.2011 17.1794C16.3236 17.1794 17.453 16.7595 18.085 16.4002C18.2232 16.3162 20.5062 14.9358 22.1847 13.9181C21.4042 13.8207 20.5822 13.7569 19.6773 13.7569C19.1385 13.7569 18.6687 13.6931 18.2232 13.5991L13.5295 16.4304C13.4258 16.4976 13.2842 16.5715 13.1254 16.6487C13.6434 16.9443 14.3273 17.1794 15.2011 17.1794ZM9.9444 16.0106C10.0756 16.0106 10.2138 16.0039 10.3623 15.9904C10.9253 15.94 11.5711 15.584 11.5711 15.584L16.2683 12.7527C15.5948 12.2388 15.1666 11.5772 14.9662 10.8651L9.60247 14.2842L8.07243 15.2616C8.15187 15.3489 8.24167 15.4329 8.34183 15.5135C8.35564 15.5269 8.36946 15.537 8.38673 15.5471C8.48344 15.6243 8.60086 15.6949 8.7252 15.7587C8.74938 15.7687 8.77356 15.7788 8.80119 15.7889C8.93243 15.8494 9.08094 15.8997 9.24673 15.9367C9.27436 15.9434 9.30544 15.9468 9.33307 15.9535C9.51267 15.9871 9.70954 16.0106 9.93404 16.0106C9.93749 16.0106 9.94094 16.0106 9.9444 16.0106Z"
          fill="#0787EA"/>
    <path d="M30.4113 20.9578C30.4113 22.726 28.9331 24.1846 27.0779 24.1846C25.2228 24.1846 23.7445 22.726 23.7445 20.9578C23.7445 19.1897 25.2228 17.7311 27.0779 17.7311C28.9331 17.7311 30.4113 19.1897 30.4113 20.9578Z"
          stroke="#0787EA" stroke-width="1.06977"/>
    <path d="M26.9244 22.3458L26.9353 20.1117L26.4655 20.247L26.3832 19.7699L27.4948 19.4792V22.3458H26.9244Z"
          fill="#0787EA"/>
    <path d="M26.9244 22.3458L26.7461 22.3449L26.7452 22.5241H26.9244V22.3458ZM26.9353 20.1117L27.1136 20.1126L27.1148 19.8745L26.886 19.9404L26.9353 20.1117ZM26.4655 20.247L26.2898 20.2773L26.3236 20.4734L26.5148 20.4184L26.4655 20.247ZM26.3832 19.7699L26.3381 19.5974L26.1797 19.6388L26.2075 19.8002L26.3832 19.7699ZM27.4948 19.4792H27.6731V19.2483L27.4497 19.3067L27.4948 19.4792ZM27.4948 22.3458V22.5241H27.6731V22.3458H27.4948ZM27.1027 22.3467L27.1136 20.1126L26.757 20.1109L26.7461 22.3449L27.1027 22.3467ZM26.886 19.9404L26.4161 20.0757L26.5148 20.4184L26.9847 20.2831L26.886 19.9404ZM26.6412 20.2167L26.5589 19.7396L26.2075 19.8002L26.2898 20.2773L26.6412 20.2167ZM26.4283 19.9424L27.5399 19.6517L27.4497 19.3067L26.3381 19.5974L26.4283 19.9424ZM27.3165 19.4792V22.3458H27.6731V19.4792H27.3165ZM27.4948 22.1675H26.9244V22.5241H27.4948V22.1675Z"
          fill="#0787EA"/>
    <ellipse cx="20.35" cy="24.0787" rx="4.5375" ry="4.41955" fill="white"/>
    <path d="M25.5851 24.0788C25.5851 26.8631 23.2616 29.1566 20.35 29.1566C17.4383 29.1566 15.1149 26.8631 15.1149 24.0788C15.1149 21.2944 17.4383 19.0009 20.35 19.0009C23.2616 19.0009 25.5851 21.2944 25.5851 24.0788Z"
          stroke="#0787EA" stroke-width="1.62975"/>
    <path d="M20.1306 26.3954L20.1463 23.2038L19.4751 23.3971L19.3575 22.7154L20.9455 22.3002V26.3954H20.1306Z"
          fill="#0787EA"/>
    <path d="M20.1306 26.3954L19.8978 26.3942L19.8966 26.6282H20.1306V26.3954ZM20.1463 23.2038L20.3791 23.205L20.3806 22.8941L20.0819 22.9801L20.1463 23.2038ZM19.4751 23.3971L19.2456 23.4367L19.2898 23.6927L19.5395 23.6208L19.4751 23.3971ZM19.3575 22.7154L19.2986 22.4902L19.0918 22.5443L19.1281 22.755L19.3575 22.7154ZM20.9455 22.3002H21.1783V21.9986L20.8866 22.0749L20.9455 22.3002ZM20.9455 26.3954V26.6282H21.1783V26.3954H20.9455ZM20.3634 26.3965L20.3791 23.205L19.9135 23.2027L19.8978 26.3942L20.3634 26.3965ZM20.0819 22.9801L19.4106 23.1734L19.5395 23.6208L20.2107 23.4276L20.0819 22.9801ZM19.7045 23.3576L19.587 22.6759L19.1281 22.755L19.2456 23.4367L19.7045 23.3576ZM19.4164 22.9407L21.0044 22.5254L20.8866 22.0749L19.2986 22.4902L19.4164 22.9407ZM20.7126 22.3002V26.3954H21.1783V22.3002H20.7126ZM20.9455 26.1626H20.1306V26.6282H20.9455V26.1626Z"
          fill="#0787EA"/>
</svg>