<svg width="42" height="42" viewBox="0 0 42 42" fill="none" xmlns="http://www.w3.org/2000/svg">
<path d="M21.672 16.7999C21.49 16.8055 21.315 16.8811 21.1862 17.0127L17.493 20.6947L15.218 18.4267C14.581 17.7631 13.552 18.7879 14.217 19.4235L16.9932 22.1927C17.269 22.4685 17.717 22.4685 17.9942 22.1927L22.1872 18.0109C22.6492 17.5629 22.309 16.7999 21.6734 16.7999H21.672ZM0.7 22.3999H4.9C5.2878 22.3999 5.6 22.7121 5.6 23.0999C5.6 23.4877 5.2878 23.7999 4.9 23.7999H0.7C0.3122 23.7999 0 23.4877 0 23.0999C0 22.7121 0.3122 22.3999 0.7 22.3999ZM0.7 16.7999H4.9C5.2878 16.7999 5.6 17.1121 5.6 17.4999C5.6 17.8877 5.2878 18.1999 4.9 18.1999H0.7C0.3122 18.1999 0 17.8877 0 17.4999C0 17.1121 0.3122 16.7999 0.7 16.7999ZM0.7 11.1999H4.9C5.2878 11.1999 5.6 11.5121 5.6 11.8999C5.6 12.2877 5.2878 12.5999 4.9 12.5999H0.7C0.3122 12.5999 0 12.2877 0 11.8999C0 11.5121 0.3122 11.1999 0.7 11.1999ZM34.3 26.5999C32.375 26.5999 30.8 28.1749 30.8 30.0999C30.8 32.0249 32.375 33.5999 34.3 33.5999C36.225 33.5999 37.8 32.0249 37.8 30.0999C37.8 28.1749 36.225 26.5999 34.3 26.5999ZM34.3 27.9999C35.4676 27.9999 36.4 28.9323 36.4 30.0999C36.4 31.2675 35.4676 32.1999 34.3 32.1999C33.1324 32.1999 32.2 31.2675 32.2 30.0999C32.2 28.9323 33.1324 27.9999 34.3 27.9999ZM16.1 26.5999C14.175 26.5999 12.6 28.1749 12.6 30.0999C12.6 32.0249 14.175 33.5999 16.1 33.5999C18.025 33.5999 19.6 32.0249 19.6 30.0999C19.6 28.1749 18.025 26.5999 16.1 26.5999ZM16.1 27.9999C17.2676 27.9999 18.2 28.9323 18.2 30.0999C18.2 31.2675 17.2676 32.1999 16.1 32.1999C14.9324 32.1999 14 31.2675 14 30.0999C14 28.9323 14.9324 27.9999 16.1 27.9999ZM9.1 8.3999C7.9492 8.3999 7 9.3491 7 10.4999V25.8999C7 27.0507 7.9492 27.9999 9.1 27.9999H11.9C12.8464 28.0139 12.8464 26.5859 11.9 26.5999H9.1C8.6996 26.5999 8.4 26.3003 8.4 25.8999V10.4999C8.4 10.0995 8.6996 9.7999 9.1 9.7999H27.3C27.7004 9.7999 28 10.0995 28 10.4999V26.5999H20.3C19.376 26.5999 19.3928 28.0139 20.3 27.9999H30.1C31.024 27.9999 31.0156 26.5999 30.1 26.5999H29.4V13.9999H35.3178L40.6 22.2543V25.8999C40.6 26.3003 40.3004 26.5999 39.9 26.5999H38.5C37.5844 26.5999 37.5844 27.9999 38.5 27.9999H39.9C41.0508 27.9999 42 27.0507 42 25.8999V22.0499C42 21.9169 41.9622 21.7839 41.8908 21.6719L36.2908 12.9219C36.162 12.7217 35.9408 12.5999 35.7 12.5999H29.4V10.4999C29.4 9.3491 28.4508 8.3999 27.3 8.3999H9.1Z" fill="#0787EA"/>
</svg>
