<svg width="42" height="42" viewBox="0 0 42 42" fill="none" xmlns="http://www.w3.org/2000/svg">
<path d="M36.2623 40C36.1537 39.9982 36.0487 39.9598 35.964 39.8908L26.2105 32.1771H6.1947C4.81738 32.1758 3.49684 31.62 2.52292 30.6316C1.54901 29.6433 1.0013 28.3032 1 26.9056V8.27153C1.00259 6.87424 1.55071 5.53493 2.52435 4.54689C3.49798 3.55886 4.81778 3.00262 6.1947 3H36.8053C38.1826 3.00131 39.5032 3.55713 40.4771 4.54545C41.451 5.53377 41.9987 6.87384 42 8.27153V26.9056C41.9987 28.3032 41.451 29.6433 40.4771 30.6316C39.5032 31.62 38.1826 32.1758 36.8053 32.1771H36.7515V39.5036C36.7508 39.5958 36.7248 39.686 36.6764 39.764C36.628 39.842 36.5592 39.9048 36.4776 39.9454C36.4109 39.9801 36.3373 39.9988 36.2623 40ZM6.1947 3.99276C5.07684 3.99407 4.00513 4.44529 3.21468 5.24743C2.42423 6.04957 1.97958 7.13713 1.97829 8.27153V26.9056C1.97958 28.04 2.42423 29.1275 3.21468 29.9297C4.00513 30.7318 5.07684 31.183 6.1947 31.1843H26.3817C26.4897 31.1847 26.5946 31.2213 26.68 31.2886L35.7732 38.486V31.6807C35.7732 31.5491 35.8247 31.4228 35.9165 31.3297C36.0082 31.2366 36.1326 31.1843 36.2623 31.1843H36.8053C37.9232 31.183 38.9949 30.7318 39.7853 29.9297C40.5758 29.1275 41.0204 28.04 41.0217 26.9056V8.27153C41.0204 7.13713 40.5758 6.04957 39.7853 5.24743C38.9949 4.44529 37.9232 3.99407 36.8053 3.99276H6.1947Z" fill="#0787EA"/>
<path d="M15.0979 25.9999H12.8814C12.3833 25.9999 11.9056 25.7735 11.5529 25.3705C11.2002 24.9674 11.0014 24.4205 11 23.8497V14.1503C11.0014 13.5795 11.2002 13.0326 11.5529 12.6295C11.9056 12.2265 12.3833 12.0001 12.8814 12.0001H15.0979C15.3463 11.997 15.5928 12.0503 15.8231 12.1569C16.0534 12.2634 16.263 12.4212 16.4398 12.6211C16.6167 12.821 16.7572 13.0591 16.8534 13.3215C16.9495 13.584 16.9993 13.8657 17 14.1503V23.8497C16.9993 24.1343 16.9495 24.416 16.8534 24.6785C16.7572 24.9409 16.6167 25.179 16.4398 25.3789C16.263 25.5788 16.0534 25.7365 15.8231 25.8431C15.5928 25.9497 15.3463 26.003 15.0979 25.9999ZM12.8814 13.1579C12.7682 13.1571 12.656 13.1823 12.5515 13.2321C12.447 13.2819 12.3522 13.3553 12.2729 13.4478C12.1936 13.5404 12.1313 13.6503 12.0897 13.7709C12.0482 13.8916 12.0282 14.0206 12.0309 14.1503V23.8497C12.0309 23.9774 12.053 24.1039 12.0958 24.2218C12.1386 24.3397 12.2013 24.4468 12.2803 24.5368C12.3594 24.6268 12.4532 24.6981 12.5564 24.7464C12.6595 24.7948 12.77 24.8192 12.8814 24.8185H15.0979C15.2094 24.8192 15.3199 24.7948 15.423 24.7464C15.5262 24.6981 15.62 24.6268 15.699 24.5368C15.7781 24.4468 15.8408 24.3397 15.8836 24.2218C15.9264 24.1039 15.9485 23.9774 15.9485 23.8497V14.1503C15.9512 14.0206 15.9312 13.8916 15.8897 13.7709C15.8481 13.6503 15.7858 13.5404 15.7065 13.4478C15.6271 13.3553 15.5324 13.2819 15.4279 13.2321C15.3233 13.1823 15.2111 13.1571 15.0979 13.1579H12.8814Z" fill="#0787EA"/>
<path d="M27.9611 25.9999C25.3067 25.9999 20.2672 25.6602 16.3333 23.6913C16.2052 23.624 16.1101 23.5119 16.0682 23.3791C16.0263 23.2463 16.041 23.1033 16.1092 22.9806C16.1773 22.8579 16.2935 22.7653 16.433 22.7226C16.5724 22.6798 16.7239 22.6904 16.8552 22.752C20.5478 24.6147 25.3853 24.9225 27.9611 24.9384C28.4246 24.9369 28.8711 24.7736 29.215 24.4797C29.5588 24.1859 29.7758 23.7822 29.8242 23.3463L30.8344 15.3858C30.867 15.135 30.8428 14.8804 30.7635 14.639C30.6842 14.3976 30.5515 14.175 30.3742 13.9858C30.197 13.7966 29.9792 13.6452 29.7354 13.5416C29.4916 13.4381 29.2273 13.3847 28.96 13.3851H23.1966C23.1146 13.3859 23.0334 13.3696 22.9588 13.3375C22.8841 13.3055 22.8178 13.2583 22.7645 13.1993C22.7122 13.1404 22.6741 13.0715 22.6528 12.9973C22.6315 12.923 22.6275 12.8453 22.6411 12.7695C22.6411 12.6209 22.9497 11.6338 23.4043 10.116C23.5446 8.76799 23.3257 7.81803 22.7701 7.36694C22.4344 7.12265 22.0136 7.00706 21.5916 7.04321C21.6124 8.56788 21.1696 10.0661 20.316 11.3597C19.4625 12.6533 18.234 13.6879 16.7767 14.3403C16.7082 14.3672 16.6347 14.3809 16.5606 14.3807C16.4865 14.3805 16.4131 14.3665 16.3448 14.3393C16.2764 14.3122 16.2144 14.2725 16.1624 14.2226C16.1103 14.1727 16.0692 14.1135 16.0415 14.0485C15.9857 13.9189 15.9862 13.7737 16.0429 13.6445C16.0997 13.5153 16.2081 13.4126 16.3446 13.3586C17.6772 12.7668 18.786 11.8029 19.5215 10.5969C20.257 9.39081 20.5839 8.00051 20.4581 6.61334C20.4534 6.49423 20.4913 6.3771 20.5656 6.28082C20.6399 6.18455 20.7463 6.11474 20.8677 6.08264C21.3159 5.97889 21.7832 5.97275 22.2342 6.06468C22.6853 6.15661 23.1084 6.34422 23.4716 6.61334C24.3471 7.31387 24.695 8.56632 24.4986 10.3282V10.4185C24.2068 11.3843 24.0272 12.0106 23.9374 12.3821H28.9881C29.4135 12.3823 29.8341 12.4677 30.2221 12.6327C30.6102 12.7976 30.9569 13.0384 31.2394 13.3392C31.522 13.64 31.734 13.994 31.8615 14.3778C31.989 14.7617 32.0291 15.1667 31.9792 15.5663L30.9691 23.5268C30.8744 24.2156 30.5159 24.8477 29.9616 25.3034C29.4073 25.7592 28.6956 26.0069 27.9611 25.9999Z" fill="#0787EA"/>
</svg>
