<svg width="42" height="42" viewBox="0 0 42 42" fill="none" xmlns="http://www.w3.org/2000/svg">
<path d="M20.9864 41C15.6497 41 10.6338 38.92 6.85408 35.1402C3.34774 31.6339 1.27959 26.9746 1.02999 22.0182C1.00622 21.5309 1.38657 21.103 1.87389 21.0792C2.36121 21.0555 2.7891 21.4358 2.81287 21.9231C3.03871 26.4279 4.92857 30.6712 8.12588 33.8685C11.5609 37.3035 16.137 39.2052 20.9983 39.2052C25.8596 39.2052 30.4357 37.3154 33.8707 33.8685C40.9666 26.7726 40.9666 15.2195 33.8707 8.12359C27.8208 2.07367 18.4072 1.06336 11.2519 5.61567L13.2606 8.07605L7.49592 7.49364L8.07833 1.72898L10.1108 4.22502C17.9912 -0.909695 28.4389 0.171922 35.1307 6.86369C42.9278 14.6608 42.9278 27.3312 35.1307 35.1284C31.339 38.92 26.3232 41 20.9864 41Z" fill="#0787EA"/>
<path d="M11.5606 16.8952C11.5606 16.8833 11.5606 16.8714 11.5725 16.8714C11.5725 16.8477 11.5844 16.8358 11.5844 16.812C11.5844 16.8001 11.5963 16.7764 11.5963 16.7645C11.5963 16.7526 11.6082 16.7407 11.6082 16.7288C11.632 16.6694 11.6557 16.6218 11.6914 16.5743L15.4711 11.0236C15.6375 10.774 15.9109 10.6313 16.208 10.6313H25.7881C26.0852 10.6313 26.3586 10.774 26.525 11.0236L30.3047 16.5624C30.3404 16.61 30.3641 16.6694 30.3879 16.7169C30.3879 16.7288 30.3998 16.7407 30.3998 16.7526C30.4117 16.7645 30.4117 16.7882 30.4117 16.8001C30.4117 16.8239 30.4236 16.8358 30.4236 16.8596C30.4236 16.8714 30.4236 16.8833 30.4355 16.8833C30.4473 16.9428 30.4592 17.0022 30.4592 17.0616V30.4808C30.4592 30.9681 30.0551 31.3722 29.5678 31.3722H12.4402C11.9529 31.3722 11.5488 30.9681 11.5488 30.4808V17.0735C11.5488 17.0022 11.5488 16.9428 11.5606 16.8952ZM25.3126 12.4142H16.6835L14.128 16.1702H27.88L25.3126 12.4142ZM13.3316 29.6012H28.6645V17.9649H13.3198V29.6012H13.3316Z" fill="#0787EA"/>
</svg>
