<svg width="43" height="42" viewBox="0 0 43 42" fill="none" xmlns="http://www.w3.org/2000/svg">
<g clip-path="url(#clip0_4383_3654)">
<path d="M7.0288 8.5164V17.0318C4.72007 17.6885 3.44316 19.3203 2.99432 20.0088H1.07794C0.924564 20.0091 0.777573 20.0694 0.669216 20.1765C0.56086 20.2836 0.5 20.4287 0.5 20.58V31.8834C0.500267 32.0345 0.561245 32.1794 0.669571 32.2862C0.777897 32.3931 0.92474 32.4533 1.07794 32.4535H6.59106L16.9607 35.7858C17.5784 35.9854 18.2335 36.0466 18.8782 35.9648C19.523 35.8831 20.1411 35.6604 20.6876 35.3132L27.1579 31.2177C27.2252 31.1788 27.2839 31.1269 27.3304 31.065C27.3769 31.0032 27.4103 30.9327 27.4285 30.8578C27.4466 30.7829 27.4493 30.7052 27.4362 30.6293C27.4232 30.5534 27.3947 30.4808 27.3525 30.4161C27.3103 30.3513 27.2553 30.2956 27.1907 30.2523C27.1262 30.209 27.0534 30.1791 26.9768 30.1643C26.9002 30.1495 26.8213 30.1501 26.745 30.1661C26.6687 30.1822 26.5964 30.2132 26.5325 30.2575L20.0622 34.353C19.66 34.6087 19.2049 34.7725 18.7303 34.8326C18.2557 34.8927 17.7734 34.8475 17.3188 34.7003L6.86238 31.3401C6.80433 31.3218 6.74379 31.3124 6.68285 31.3122H1.65588V21.1501H3.32414C3.43018 21.1502 3.53421 21.1215 3.62477 21.0671C3.71534 21.0127 3.78896 20.9347 3.83753 20.8417C4.56218 19.6315 5.69011 18.7069 7.0288 18.2258V20.9919C6.00808 21.3899 4.87439 22.1083 4.17643 23.4257C4.13271 23.5069 4.10986 23.5975 4.10986 23.6894C4.10991 23.817 4.15329 23.941 4.23309 24.0414C4.31289 24.1419 4.42449 24.2131 4.5501 24.2437C4.67571 24.2743 4.80808 24.2625 4.92609 24.2101C5.04411 24.1578 5.14095 24.068 5.20119 23.9551C6.36917 21.7521 9.26896 21.6556 9.28509 21.6546C13.1673 21.6546 14.2868 24.3312 14.3282 24.4406C14.3701 24.5485 14.4442 24.6413 14.5408 24.7067C14.6373 24.7721 14.7517 24.807 14.8688 24.8068H20.5988C21.0316 24.8173 21.4431 24.9944 21.7455 25.3001C22.0478 25.6058 22.2171 26.016 22.2171 26.4431C22.2171 26.8702 22.0478 27.2804 21.7455 27.5862C21.4431 27.8919 21.0316 28.0689 20.5988 28.0794H13.7624C13.6844 28.0762 13.6065 28.0886 13.5335 28.1158C13.4605 28.143 13.3938 28.1846 13.3375 28.2379C13.2811 28.2912 13.2363 28.3552 13.2057 28.426C13.175 28.4968 13.1593 28.5731 13.1593 28.6501C13.1593 28.7271 13.175 28.8033 13.2057 28.8741C13.2363 28.945 13.2811 29.009 13.3375 29.0623C13.3938 29.1156 13.4605 29.1571 13.5335 29.1843C13.6065 29.2115 13.6844 29.2239 13.7624 29.2207H20.5988C21.3363 29.2069 22.0389 28.9083 22.5555 28.3888C23.0722 27.8694 23.3616 27.1708 23.3616 26.4431C23.3616 25.7154 23.0722 25.0168 22.5555 24.4974C22.0389 23.978 21.3363 23.6793 20.5988 23.6655H15.2349C14.7387 22.7611 13.1168 20.5123 9.27299 20.5123C8.90718 20.528 8.54342 20.5746 8.1857 20.6516V12.0636H41.3431V15.8198L10.1979 15.8198C10.0487 15.826 9.90761 15.8888 9.80422 15.9951C9.70083 16.1015 9.6431 16.2431 9.6431 16.3905C9.6431 16.5378 9.70083 16.6795 9.80422 16.7858C9.90761 16.8921 10.0487 16.955 10.1979 16.9611H41.3431V26.7053C41.3426 27.0698 41.1955 27.4193 40.9343 27.6771C40.673 27.9348 40.3187 28.0799 39.9492 28.0804H24.6262C24.477 28.0866 24.3359 28.1494 24.2325 28.2557C24.1292 28.3621 24.0714 28.5037 24.0714 28.6511C24.0714 28.7984 24.1292 28.9401 24.2325 29.0464C24.3359 29.1527 24.477 29.2156 24.6262 29.2217H39.9492C40.6255 29.2212 41.274 28.9559 41.7523 28.4841C42.2305 28.0123 42.4995 27.3725 42.5 26.7053V8.5164C42.4995 7.84917 42.2305 7.20942 41.7523 6.73762C41.274 6.26582 40.6255 6.00053 39.9492 6L9.57961 6C8.90334 6.00079 8.255 6.26616 7.77681 6.73791C7.29861 7.20965 7.02961 7.84925 7.0288 8.5164ZM39.9492 7.14128C40.3187 7.14181 40.673 7.28686 40.9343 7.54463C41.1955 7.8024 41.3426 8.15186 41.3431 8.5164V10.9223H8.1857V8.5164C8.18623 8.15186 8.33326 7.8024 8.59455 7.54463C8.85585 7.28686 9.21009 7.14181 9.57961 7.14128L39.9492 7.14128Z" fill="#0787EA"/>
<path d="M14.5 19.4996C14.5 19.6323 14.5633 19.7596 14.676 19.8534C14.7887 19.9473 14.9415 20 15.1009 20H22.9242C23.0791 19.9946 23.2255 19.9396 23.3328 19.8464C23.4401 19.7532 23.5 19.6291 23.5 19.5C23.5 19.3709 23.4401 19.2468 23.3328 19.1536C23.2255 19.0604 23.0791 19.0054 22.9242 19H15.1009C15.022 18.9999 14.9439 19.0127 14.871 19.0378C14.7981 19.0628 14.7319 19.0996 14.6761 19.146C14.6203 19.1924 14.576 19.2475 14.5458 19.3082C14.5156 19.3689 14.5 19.4339 14.5 19.4996Z" fill="#0787EA"/>
<path d="M25.3045 19.0105C25.2408 19.0167 25.1786 19.0264 25.119 19.0392C25.057 19.0509 24.9982 19.0665 24.944 19.0854C24.8895 19.1033 24.8391 19.1241 24.7935 19.1473C24.6539 19.2169 24.5586 19.3055 24.5197 19.402C24.4807 19.4984 24.4999 19.5985 24.5746 19.6896C24.6494 19.7806 24.7765 19.8587 24.94 19.9139C25.1035 19.9691 25.296 19.9991 25.4935 20C25.56 20.0003 25.6263 19.9971 25.6913 19.9904C25.7559 19.9839 25.8191 19.9746 25.8803 19.9625C25.9412 19.9496 25.9997 19.9341 26.0553 19.9163C26.1093 19.8977 26.1597 19.8767 26.2059 19.8535C26.2991 19.8072 26.3731 19.7522 26.4235 19.6916C26.474 19.631 26.5 19.566 26.5 19.5004C26.5 19.4348 26.474 19.3699 26.4235 19.3093C26.3731 19.2487 26.2991 19.1937 26.2059 19.1473C26.1606 19.1239 26.1101 19.1031 26.0553 19.0854C26.0005 19.067 25.9418 19.0515 25.8803 19.0392C25.8194 19.0265 25.7561 19.0168 25.6913 19.0105C25.6263 19.0034 25.56 18.9999 25.4935 19C25.43 19.0003 25.3667 19.0038 25.3045 19.0105Z" fill="#0787EA"/>
<path d="M27.6452 19.1473C27.5522 19.2412 27.5 19.3682 27.5 19.5004C27.5 19.6327 27.5522 19.7596 27.6452 19.8535C27.6686 19.877 27.6942 19.898 27.7218 19.9163C27.7492 19.9347 27.7783 19.9501 27.8088 19.9625C27.8386 19.9748 27.8695 19.9842 27.9011 19.9904C27.9658 20.0032 28.0323 20.0032 28.0969 19.9904C28.129 19.9839 28.1605 19.9746 28.1909 19.9625C28.2212 19.9496 28.2503 19.9341 28.278 19.9163C28.305 19.8976 28.3303 19.8766 28.3537 19.8535C28.4001 19.8072 28.4369 19.7522 28.462 19.6916C28.4871 19.631 28.5 19.566 28.5 19.5004C28.5 19.4348 28.4871 19.3699 28.462 19.3093C28.4369 19.2487 28.4001 19.1937 28.3537 19.1473C28.3072 19.1012 28.2522 19.0645 28.1918 19.0392C28.1615 19.0265 28.13 19.0168 28.0978 19.0105C28.0658 19.0035 28.0331 19 28.0003 19C27.8672 19.0005 27.7397 19.0534 27.6452 19.1473Z" fill="#0787EA"/>
<path d="M30.8091 19.0392C30.7782 19.0509 30.749 19.0664 30.722 19.0854C30.694 19.1029 30.6683 19.1237 30.6453 19.1473C30.5522 19.2412 30.5 19.3682 30.5 19.5004C30.5 19.6327 30.5522 19.7596 30.6453 19.8535C30.6917 19.9001 30.7468 19.9371 30.8075 19.9622C30.8682 19.9874 30.9333 20.0002 30.999 20C31.0318 20.0002 31.0645 19.997 31.0966 19.9904C31.1285 19.9842 31.1597 19.9748 31.1898 19.9625C31.2203 19.9499 31.2494 19.9345 31.2769 19.9163C31.3044 19.8978 31.33 19.8768 31.3536 19.8535C31.4 19.8072 31.4368 19.7522 31.4619 19.6916C31.4871 19.631 31.5 19.566 31.5 19.5004C31.5 19.4348 31.4871 19.3699 31.4619 19.3093C31.4368 19.2487 31.4 19.1937 31.3536 19.1473C31.3305 19.1239 31.3047 19.1031 31.2769 19.0854C31.2498 19.0666 31.2206 19.0511 31.1898 19.0392C31.1599 19.0262 31.1286 19.0166 31.0966 19.0105C31.0645 19.0035 31.0318 19 30.999 19C30.9662 19 30.9335 19.0035 30.9015 19.0105C30.8697 19.0165 30.8387 19.0262 30.8091 19.0392Z" fill="#0787EA"/>
</g>
<defs>
<clipPath id="clip0_4383_3654">
<rect width="42" height="42" fill="white" transform="matrix(0 1 -1 0 42.5 0)"/>
</clipPath>
</defs>
</svg>
