<svg width="43" height="42" viewBox="0 0 43 42" fill="none" xmlns="http://www.w3.org/2000/svg">
<path d="M22.8342 3.89827C25.1789 3.72369 30.3252 3.44303 35.9317 3.79135C36.6974 3.8381 37.4195 4.16346 37.9617 4.70604C38.504 5.24862 38.829 5.97091 38.8753 6.73662C39.2261 12.3816 38.9387 17.5621 38.765 19.8825C38.7057 20.7243 38.4021 21.5305 37.8913 22.2022C35.94 24.7615 30.3068 31.6527 21.6188 38.2257C20.4912 39.0785 19.0503 39.2999 17.8725 38.5189C16.3991 37.5416 14.0418 35.653 10.6422 32.0253C7.70192 28.8896 5.88431 26.7111 4.7742 25.266C3.66743 23.8243 3.78855 21.9248 4.9162 20.5007C11.4666 12.2287 17.9544 6.78089 20.4402 4.82211C21.1279 4.28126 21.9614 3.95941 22.8342 3.89827Z" stroke="#0787EA" stroke-width="1.5" stroke-linecap="round" stroke-linejoin="round"/>
<path d="M29.8542 10.3074C29.8542 10.972 30.1183 11.6094 30.5882 12.0793C31.0582 12.5493 31.6955 12.8133 32.3601 12.8133C33.0247 12.8133 33.6621 12.5493 34.1321 12.0793C34.602 11.6094 34.866 10.972 34.866 10.3074C34.866 9.6428 34.602 9.00542 34.1321 8.53547C33.6621 8.06553 33.0247 7.80151 32.3601 7.80151C31.6955 7.80151 31.0582 8.06553 30.5882 8.53547C30.1183 9.00542 29.8542 9.6428 29.8542 10.3074Z" stroke="#0787EA" stroke-width="1.5" stroke-linecap="round" stroke-linejoin="round"/>
</svg>
