<svg width="22" height="22" viewBox="0 0 22 22" fill="none" xmlns="http://www.w3.org/2000/svg">
<path d="M4.0459 1.82977L0.919922 1.84589L0.928874 3.67922L2.82666 3.67027L5.847 10.9159L4.74951 12.6722C4.38284 13.2589 4.36388 13.9999 4.69938 14.604C5.03488 15.2081 5.67146 15.5834 6.36263 15.5834H17.4163V13.75H6.36263L6.30355 13.6426L7.38135 11.9167H14.2277C14.8941 11.9167 15.5074 11.5543 15.8301 10.9732L19.1333 5.02915C19.2919 4.74499 19.2876 4.39836 19.1226 4.11786C18.9576 3.83828 18.6557 3.66669 18.3312 3.66669H4.81217L4.0459 1.82977ZM5.57487 5.50002H16.7736L14.2277 10.0834H7.48519L5.57487 5.50002ZM6.41634 16.5C5.93011 16.5 5.4638 16.6932 5.11998 17.037C4.77616 17.3808 4.58301 17.8471 4.58301 18.3334C4.58301 18.8196 4.77616 19.2859 5.11998 19.6297C5.4638 19.9735 5.93011 20.1667 6.41634 20.1667C6.90257 20.1667 7.36889 19.9735 7.7127 19.6297C8.05652 19.2859 8.24967 18.8196 8.24967 18.3334C8.24967 17.8471 8.05652 17.3808 7.7127 17.037C7.36889 16.6932 6.90257 16.5 6.41634 16.5ZM15.583 16.5C15.0968 16.5 14.6305 16.6932 14.2866 17.037C13.9428 17.3808 13.7497 17.8471 13.7497 18.3334C13.7497 18.8196 13.9428 19.2859 14.2866 19.6297C14.6305 19.9735 15.0968 20.1667 15.583 20.1667C16.0692 20.1667 16.5356 19.9735 16.8794 19.6297C17.2232 19.2859 17.4163 18.8196 17.4163 18.3334C17.4163 17.8471 17.2232 17.3808 16.8794 17.037C16.5356 16.6932 16.0692 16.5 15.583 16.5Z" fill="white" style="fill:white;fill-opacity:1;"/>
</svg>
