<svg width="20" height="19" viewBox="0 0 20 19" fill="none" xmlns="http://www.w3.org/2000/svg">
<path d="M13.9777 0C12.7618 0 11.7724 0.98947 11.7724 2.20536V2.4504H0.745589C0.648177 2.44902 0.551463 2.46702 0.461066 2.50334C0.37067 2.53967 0.288395 2.59359 0.219022 2.66199C0.149649 2.73039 0.0945618 2.8119 0.0569622 2.90177C0.0193625 2.99164 0 3.08809 0 3.18552C0 3.28294 0.0193625 3.37939 0.0569622 3.46926C0.0945618 3.55913 0.149649 3.64064 0.219022 3.70904C0.288395 3.77744 0.37067 3.83137 0.461066 3.86769C0.551463 3.90402 0.648177 3.92201 0.745589 3.92063H11.7724V4.16567C11.7724 5.38156 12.7618 6.37103 13.9777 6.37103C15.1936 6.37103 16.1831 5.38156 16.1831 4.16567V3.92063H18.8785C18.9759 3.92201 19.0727 3.90402 19.163 3.86769C19.2534 3.83137 19.3357 3.77744 19.4051 3.70904C19.4745 3.64064 19.5296 3.55913 19.5672 3.46926C19.6048 3.37939 19.6241 3.28294 19.6241 3.18552C19.6241 3.08809 19.6048 2.99164 19.5672 2.90177C19.5296 2.8119 19.4745 2.73039 19.4051 2.66199C19.3357 2.59359 19.2534 2.53967 19.163 2.50334C19.0727 2.46702 18.9759 2.44902 18.8785 2.4504H16.1831V2.20536C16.1831 0.98947 15.1936 0 13.9777 0ZM5.64638 6.12599C4.4305 6.12599 3.44103 7.11546 3.44103 8.33135V8.57639H0.745589C0.648177 8.57501 0.551463 8.59301 0.461066 8.62933C0.37067 8.66566 0.288395 8.71959 0.219022 8.78798C0.149649 8.85638 0.0945618 8.93789 0.0569622 9.02776C0.0193625 9.11763 0 9.21409 0 9.31151C0 9.40893 0.0193625 9.50538 0.0569622 9.59525C0.0945618 9.68513 0.149649 9.76663 0.219022 9.83503C0.288395 9.90343 0.37067 9.95736 0.461066 9.99368C0.551463 10.03 0.648177 10.048 0.745589 10.0466H3.44103V10.2917C3.44103 11.5076 4.4305 12.497 5.64638 12.497C6.86227 12.497 7.85174 11.5076 7.85174 10.2917V10.0466H18.8785C18.9759 10.048 19.0727 10.03 19.163 9.99368C19.2534 9.95736 19.3357 9.90343 19.4051 9.83503C19.4745 9.76663 19.5296 9.68513 19.5672 9.59525C19.6048 9.50538 19.6241 9.40893 19.6241 9.31151C19.6241 9.21409 19.6048 9.11763 19.5672 9.02776C19.5296 8.93789 19.4745 8.85638 19.4051 8.78798C19.3357 8.71959 19.2534 8.66566 19.163 8.62933C19.0727 8.59301 18.9759 8.57501 18.8785 8.57639H7.85174V8.33135C7.85174 7.11546 6.86227 6.12599 5.64638 6.12599ZM12.9976 12.252C11.7817 12.252 10.7922 13.2415 10.7922 14.4573V14.7024H0.745589C0.648177 14.701 0.551463 14.719 0.461066 14.7553C0.37067 14.7916 0.288395 14.8456 0.219022 14.914C0.149649 14.9824 0.0945618 15.0639 0.0569622 15.1538C0.0193625 15.2436 0 15.3401 0 15.4375C0 15.5349 0.0193625 15.6314 0.0569622 15.7212C0.0945618 15.8111 0.149649 15.8926 0.219022 15.961C0.288395 16.0294 0.37067 16.0833 0.461066 16.1197C0.551463 16.156 0.648177 16.174 0.745589 16.1726H10.7922V16.4177C10.7922 17.6335 11.7817 18.623 12.9976 18.623C14.2135 18.623 15.2029 17.6335 15.2029 16.4177V16.1726H18.8785C18.9759 16.174 19.0727 16.156 19.163 16.1197C19.2534 16.0833 19.3357 16.0294 19.4051 15.961C19.4745 15.8926 19.5296 15.8111 19.5672 15.7212C19.6048 15.6314 19.6241 15.5349 19.6241 15.4375C19.6241 15.3401 19.6048 15.2436 19.5672 15.1538C19.5296 15.0639 19.4745 14.9824 19.4051 14.914C19.3357 14.8456 19.2534 14.7916 19.163 14.7553C19.0727 14.719 18.9759 14.701 18.8785 14.7024H15.2029V14.4573C15.2029 13.2415 14.2135 12.252 12.9976 12.252Z" fill="white" style="fill:white;fill-opacity:1;"/>
</svg>
