<svg width="28" height="28" viewBox="0 0 28 28" fill="none" xmlns="http://www.w3.org/2000/svg">
<path d="M22.4187 27.2C22.4093 27.2 22.3999 27.2 22.3905 27.2C17.8812 27.0523 12.5984 22.6813 8.95852 19.0391C5.31399 15.3969 0.942894 10.1117 0.802269 5.62344C0.750707 4.04844 4.61555 1.24766 4.65539 1.21953C5.65852 0.521094 6.7718 0.769531 7.22883 1.40234C7.53821 1.83125 10.4679 6.27031 10.7866 6.77422C11.1171 7.29688 11.0679 8.075 10.6554 8.85547C10.4281 9.28906 9.67336 10.6156 9.31946 11.2344C9.70149 11.7781 10.7116 13.1117 12.7976 15.1977C14.8859 17.2836 16.2171 18.2961 16.7632 18.6781C17.382 18.3242 18.7085 17.5695 19.1421 17.3422C19.9109 16.9344 20.6843 16.8828 21.2116 17.2063C21.7507 17.5367 26.178 20.4805 26.5859 20.7641C26.928 21.0055 27.1484 21.418 27.1929 21.8984C27.2351 22.3836 27.0851 22.8969 26.7734 23.3445C26.7476 23.382 23.9796 27.2 22.4187 27.2Z" fill="#0787EA" style="fill:#0787EA;fill:color(display-p3 0.0275 0.5294 0.9176);fill-opacity:1;"/>
</svg>
