<svg width="20" height="18" viewBox="0 0 20 18" fill="none" xmlns="http://www.w3.org/2000/svg">
<path d="M1.75001 0.75C1.5069 0.75 1.27374 0.846577 1.10183 1.01849C0.929921 1.19039 0.833344 1.42355 0.833344 1.66667V6.79606C0.833344 7.26723 1.19028 7.66061 1.6587 7.70736L14.5833 9L1.6587 10.2926C1.19028 10.3394 0.833344 10.7328 0.833344 11.2039V16.3333C0.833344 16.5764 0.929921 16.8096 1.10183 16.9815C1.27374 17.1534 1.5069 17.25 1.75001 17.25C1.92502 17.2504 2.09649 17.2007 2.24415 17.1068C2.24475 17.1062 2.24535 17.1056 2.24594 17.105L18.5615 9.86475L18.5597 9.86117C18.7372 9.79746 18.8907 9.68059 18.9993 9.52649C19.1079 9.37238 19.1663 9.18853 19.1667 9C19.1663 8.81147 19.1079 8.62762 18.9993 8.47351C18.8907 8.31941 18.7372 8.20254 18.5597 8.13883L18.5615 8.13525L2.23341 0.889648C2.08846 0.798921 1.92101 0.750549 1.75001 0.75Z" fill="white" style="fill:white;fill-opacity:1;"/>
</svg>
