<svg width="36" height="37" viewBox="0 0 36 37" fill="none" xmlns="http://www.w3.org/2000/svg">
<path d="M3.65088 32.9773L5.67138 25.601C4.42488 23.4425 3.76938 20.993 3.77013 18.4843C3.77388 10.6355 10.1609 4.25 18.0104 4.25C21.8196 4.2515 25.3941 5.73425 28.0829 8.4245C30.7709 11.1155 32.2514 14.6915 32.2499 18.4955C32.2469 26.3443 25.8584 32.7305 18.0104 32.7305H18.0044C15.6216 32.7298 13.2794 32.132 11.1996 30.9973L3.65088 32.9773Z" fill="white" style="fill:white;fill-opacity:1;"/>
<path d="M3.65104 33.3522C3.55204 33.3522 3.45604 33.3132 3.38479 33.2412C3.29104 33.146 3.25429 33.0072 3.28954 32.879L5.26879 25.652C4.04179 23.4725 3.39454 20.9975 3.39604 18.485C3.39904 10.4285 9.95479 3.875 18.0105 3.875C21.918 3.8765 25.5893 5.39825 28.3485 8.15975C31.1078 10.922 32.6265 14.5925 32.625 18.4955C32.622 26.5512 26.0655 33.1055 18.0105 33.1055C15.6188 33.1047 13.2525 32.5145 11.1525 31.3977L3.74629 33.3395C3.71479 33.3485 3.68329 33.3522 3.65104 33.3522Z" fill="white" style="fill:white;fill-opacity:1;"/>
<path d="M18.0104 4.25C21.8197 4.2515 25.3942 5.73425 28.0829 8.4245C30.7709 11.1155 32.2514 14.6915 32.2499 18.4955C32.2469 26.3442 25.8584 32.7305 18.0104 32.7305H18.0044C15.6217 32.7297 13.2794 32.132 11.1997 30.9972L3.65094 32.9773L5.67144 25.601C4.42494 23.4425 3.76944 20.993 3.77019 18.4843C3.77394 10.6355 10.1609 4.25 18.0104 4.25ZM18.0104 3.5C9.74844 3.5 3.02394 10.2215 3.02019 18.4843C3.01944 21.0095 3.65694 23.498 4.86594 25.7008L2.92719 32.78C2.85669 33.0388 2.92869 33.3148 3.11769 33.5052C3.26019 33.6493 3.45294 33.728 3.65094 33.728C3.71469 33.728 3.77844 33.7197 3.84144 33.7033L11.1067 31.7982C13.2277 32.8993 15.6052 33.4805 18.0044 33.4812C26.2724 33.4812 32.9969 26.759 33.0007 18.4963C33.0022 14.492 31.4444 10.727 28.6147 7.895C25.7834 5.06225 22.0177 3.5015 18.0104 3.5Z" fill="#CFD8DC" style="fill:#CFD8DC;fill:color(display-p3 0.8118 0.8471 0.8627);fill-opacity:1;"/>
<path d="M26.3821 10.124C24.1471 7.8875 21.1763 6.65525 18.0143 6.6545C11.4863 6.6545 6.17707 11.9615 6.17407 18.485C6.17332 20.7208 6.79882 22.8973 7.98382 24.782L8.26582 25.2298L7.06957 29.5955L11.5493 28.421L11.9821 28.6775C13.7986 29.756 15.8821 30.326 18.0061 30.3268H18.0106C24.5341 30.3268 29.8433 25.019 29.8456 18.4948C29.8463 15.3335 28.6171 12.3605 26.3821 10.124Z" fill="#40C351" style="fill:#40C351;fill:color(display-p3 0.2510 0.7647 0.3176);fill-opacity:1;"/>
<path fill-rule="evenodd" clip-rule="evenodd" d="M14.4509 12.5337C14.1847 11.9412 13.9042 11.9293 13.6499 11.9188C13.4422 11.9098 13.2052 11.9105 12.9682 11.9105C12.7312 11.9105 12.3457 11.9997 12.0194 12.356C11.6932 12.7122 10.7737 13.5725 10.7737 15.323C10.7737 17.0735 12.0487 18.7655 12.2264 19.0025C12.4042 19.2395 14.6879 22.9467 18.3044 24.3732C21.3097 25.5582 21.9217 25.3228 22.5742 25.2635C23.2267 25.2042 24.6794 24.4032 24.9757 23.5722C25.2719 22.7412 25.2719 22.0295 25.1834 21.881C25.0942 21.7325 24.8572 21.644 24.5017 21.4655C24.1462 21.287 22.3964 20.4267 22.0702 20.3082C21.7439 20.1897 21.5069 20.1305 21.2692 20.4867C21.0322 20.8422 20.3504 21.644 20.1427 21.881C19.9349 22.1187 19.7272 22.1487 19.3717 21.9702C19.0162 21.7917 17.8702 21.4167 16.5104 20.2047C15.4529 19.262 14.7389 18.0972 14.5312 17.741C14.3234 17.3855 14.5087 17.1927 14.6872 17.015C14.8469 16.8552 15.0427 16.5995 15.2212 16.3917C15.3989 16.184 15.4582 16.0355 15.5767 15.7985C15.6952 15.5608 15.6359 15.353 15.5467 15.1752C15.4589 14.9967 14.7674 13.2372 14.4509 12.5337Z" fill="white" style="fill:white;fill-opacity:1;"/>
</svg>
