<svg width="16" height="20" viewBox="0 0 16 20" fill="none" xmlns="http://www.w3.org/2000/svg">
<path d="M6.53317 0.46666C6.33868 0.46666 6.15215 0.543921 6.01463 0.681448C5.8771 0.818975 5.79984 1.0055 5.79984 1.19999C5.79984 4.90846 0.666504 7.79999 0.666504 12.9333C0.666504 16.8331 4.89307 19.3543 6.38135 19.5176C6.43127 19.5281 6.48215 19.5334 6.53317 19.5333C6.72766 19.5333 6.91419 19.4561 7.05171 19.3185C7.18924 19.181 7.2665 18.9945 7.2665 18.8C7.26645 18.6911 7.24212 18.5835 7.1953 18.4851C7.14847 18.3868 7.08032 18.3001 6.9958 18.2314V18.2299C6.32847 17.6887 5.0665 16.1187 5.0665 14.685C5.0665 12.3318 7.2665 11.4667 7.2665 11.4667C6.01177 15.016 10.1232 15.4448 10.9504 18.959H10.9518C10.9879 19.1217 11.0784 19.2672 11.2083 19.3716C11.3382 19.476 11.4998 19.5331 11.6665 19.5333C11.8209 19.5329 11.9713 19.4838 12.0962 19.393C12.1094 19.3834 12.1223 19.3733 12.1349 19.3629C12.2542 19.2854 15.3332 17.249 15.3332 12.9333C15.3332 11.1714 14.4519 8.14503 13.8178 6.80455L13.8164 6.80025L13.8149 6.79739C13.7609 6.66059 13.6671 6.54319 13.5455 6.46044C13.4239 6.37768 13.2802 6.33339 13.1332 6.33333C12.9619 6.33349 12.7961 6.39359 12.6645 6.5032C12.5329 6.61282 12.4438 6.76504 12.4127 6.93346V6.93632C12.4109 6.94433 12.0741 8.44021 10.9332 9.26666C10.9332 5.81146 8.43864 2.24251 7.12328 0.766008C7.10354 0.739273 7.082 0.713911 7.05882 0.690097C6.9906 0.619585 6.90893 0.563478 6.81864 0.525099C6.72835 0.486719 6.63128 0.466847 6.53317 0.46666Z" fill="#FF2D2D" style="fill:#FF2D2D;fill:color(display-p3 1.0000 0.1750 0.1750);fill-opacity:1;"/>
</svg>
