<svg width="18" height="20" viewBox="0 0 18 20" fill="none" xmlns="http://www.w3.org/2000/svg">
<path d="M10.3735 0.375C9.36145 0.375 8.54102 1.19635 8.54102 2.20744C8.54102 3.22035 9.36145 4.04167 10.3735 4.04167C11.3877 4.04167 12.2077 3.22035 12.2077 2.20744C12.2077 1.19635 11.3877 0.375 10.3735 0.375ZM16.0928 3.11515C15.9342 3.11813 15.7816 3.1758 15.6607 3.27842C15.5398 3.38103 15.4581 3.52227 15.4294 3.67822L15.3999 3.82503C15.3351 3.83728 15.2717 3.85649 15.211 3.88232L12.6302 4.95833H9.14168H8.91789C8.8862 4.95818 8.85453 4.95968 8.823 4.96281C8.27642 4.97514 7.8978 5.27653 7.80786 5.53841C7.80111 5.55798 7.79738 5.56962 7.79085 5.58854C7.2772 6.99291 6.69196 8.3126 6.31559 9.87826C6.31544 9.87889 6.31485 9.87941 6.3147 9.88005C6.28411 9.95755 6.26423 10.0389 6.25562 10.1217L6.25472 10.1271C6.25297 10.135 6.25109 10.1425 6.24935 10.1504L6.25203 10.1522L5.81787 13.8448L4.29696 16.67C4.23991 16.776 4.20432 16.8923 4.1922 17.0121C4.18009 17.1319 4.19169 17.2529 4.22635 17.3682C4.261 17.4835 4.31803 17.5909 4.39418 17.6841C4.47034 17.7774 4.56411 17.8548 4.67016 17.9118C4.77621 17.9688 4.89246 18.0044 5.01226 18.0165C5.13205 18.0286 5.25306 18.0169 5.36837 17.9823C5.48367 17.9476 5.59102 17.8905 5.68427 17.8144C5.77753 17.7382 5.85486 17.6444 5.91187 17.5383L7.51514 14.5592C7.56968 14.4577 7.6046 14.3468 7.61808 14.2324L7.94303 11.4672L9.25269 13.6953L9.68416 17.2161C9.71384 17.4574 9.83817 17.6771 10.0298 17.8267C10.2214 17.9764 10.4647 18.0438 10.706 18.0141C10.9473 17.9844 11.167 17.8601 11.3167 17.6685C11.4663 17.4768 11.5337 17.2336 11.5041 16.9923L11.0493 13.2835C11.0339 13.159 10.9931 13.0389 10.9294 12.9308L9.51497 10.5237L10.3215 8.17025L11.2445 9.40381C11.3565 9.55304 11.5114 9.66453 11.6885 9.72339L14.0688 10.5165L12.7904 16.9475C12.055 17.5906 11.5839 18.5129 11.291 19.625H14.4993H14.5056C14.5056 19.6157 14.5042 19.6064 14.5029 19.5972C14.64 18.7103 14.5374 17.9004 14.1449 17.1829L15.5163 10.2891C15.5834 10.1888 15.6301 10.0762 15.6536 9.95772C15.6771 9.83927 15.677 9.71735 15.6532 9.59896L16.7776 3.94678C16.7993 3.84549 16.7979 3.74061 16.7734 3.63996C16.7489 3.53931 16.7019 3.4455 16.6361 3.36554C16.5702 3.28557 16.4872 3.22152 16.3931 3.17816C16.299 3.1348 16.1963 3.11327 16.0928 3.11515ZM14.9738 5.9672L14.4295 8.70557L12.5407 8.07536L11.5802 6.79167H12.8137C12.9348 6.79162 13.0547 6.76758 13.1664 6.72095L14.9738 5.9672ZM16.8027 17.4918C16.7361 17.4973 16.6714 17.5236 16.6182 17.5697C16.2837 17.8396 15.8879 18.0281 15.3498 18.1372C15.4323 18.6065 15.4577 19.1011 15.416 19.625C16.4184 19.2909 16.9335 18.7128 17.1392 17.891C17.1741 17.7554 17.1165 17.6126 16.9969 17.5383C16.9373 17.5014 16.8692 17.4863 16.8027 17.4918ZM0.291016 18.25V18.6054C0.291016 18.9317 0.521178 19.2131 0.841553 19.2768C1.40393 19.3895 2.23091 19.5544 2.49674 19.608C2.55404 19.619 2.6122 19.625 2.67041 19.625H10.3824C10.3824 19.5842 10.379 19.5436 10.3905 19.5024C10.5179 19.0449 10.6685 18.6322 10.8354 18.25H0.291016Z" fill="#333C49" style="fill:#333C49;fill:color(display-p3 0.2000 0.2353 0.2863);fill-opacity:1;"/>
</svg>
